<svg xmlns="http://www.w3.org/2000/svg" width="50" height="50" viewBox="0 0 32 32" class="icon icons8-codepen">
  <path d="M16 2.84375l-.5625.375-12 8.03125L3 11.53125v8.9375l.4375.28125 12 8.03125.5625.375.5625-.375 12-8.03125.4375-.28125v-8.9375l-.4375-.28125-12-8.03125zm-1 3.0625v5.4375L9.84375 14.8125 5.8125 12.09375zm2 0l9.1875 6.1875-4.03125 2.71875L17 11.34375zm-1 7.1875L20.34375 16 16 18.90625 11.65625 16zM5 13.9375L8.0625 16 5 18.0625zm22 0v4.125L23.9375 16zm-17.125 3.25L15 20.65625v5.4375l-9.1875-6.1875zm12.25 0l4.0625 2.71875L17 26.09375v-5.4375z"/>
</svg>
