<svg xmlns="http://www.w3.org/2000/svg" width="50" height="50" viewBox="0 0 26 26" class="icon icons8-linkedin">
  <path d="M21.125 0H4.875C2.183594 0 0 2.183594 0 4.875v16.25C0 23.816406 2.183594 26 4.875 26h16.25C23.816406 26 26 23.816406 26 21.125V4.875C26 2.183594 23.816406 0 21.125 0zM8.039063 22.070313H4l-.023437-12.09375h4.039062zM5.917969 8.394531h-.023438c-1.320312 0-2.171875-.910156-2.171875-2.042968 0-1.160157.878907-2.039063 2.222657-2.039063s2.167968.878906 2.195312 2.039063c0 1.132812-.855469 2.042968-2.222656 2.042968zm16.125 13.675782H17.96875V15.5c0-1.589844-.421875-2.671875-1.84375-2.671875-1.085937 0-1.671875.730469-1.953125 1.4375-.105469.253906-.132812.601563-.132812.957031v6.847657h-4.09375l-.023438-12.09375h4.09375l.023438 1.707031c.523437-.808594 1.394531-1.953125 3.480468-1.953125 2.585938 0 4.519532 1.6875 4.519532 5.316406v7.023438z"/>
</svg>
