<svg width="1265" height="844" xmlns="http://www.w3.org/2000/svg"><g><path d="M-66,-31L-82,94L24,-37Z" fill="#ffffff" stroke="#ffffff"/><path d="M-66,-31L24,-37L172,-74Z" fill="#f8fbfe" stroke="#f8fbfe"/><path d="M24,-37L-82,94L123,59Z" fill="#fafcff" stroke="#fafcff"/><path d="M24,-37L123,59L172,-74Z" fill="#f3f8fd" stroke="#f3f8fd"/><path d="M172,-74L123,59L280,53Z" fill="#ecf4fa" stroke="#ecf4fa"/><path d="M172,-74L280,53L332,25Z" fill="#e7f0f9" stroke="#e7f0f9"/><path d="M172,-74L332,25L383,-60Z" fill="#e4eef8" stroke="#e4eef8"/><path d="M172,-74L383,-60L787,-130Z" fill="#d2e6f1" stroke="#d2e6f1"/><path d="M383,-60L332,25L515,-50Z" fill="#d7e8f3" stroke="#d7e8f3"/><path d="M383,-60L515,-50L787,-130Z" fill="#c1dded" stroke="#c1dded"/><path d="M515,-50L332,25L563,57Z" fill="#cfe5f0" stroke="#cfe5f0"/><path d="M515,-50L563,57L689,-31Z" fill="#bcdbec" stroke="#bcdbec"/><path d="M515,-50L689,-31L787,-130Z" fill="#b1d4e9" stroke="#b1d4e9"/><path d="M689,-31L563,57L669,64Z" fill="#b4d6ea" stroke="#b4d6ea"/><path d="M689,-31L669,64L858,102Z" fill="#a7cde5" stroke="#a7cde5"/><path d="M689,-31L858,102L787,-130Z" fill="#a2cae3" stroke="#a2cae3"/><path d="M787,-130L858,102L1002,-53Z" fill="#97bfde" stroke="#97bfde"/><path d="M787,-130L1002,-53L1153,-70Z" fill="#8eb4d7" stroke="#8eb4d7"/><path d="M787,-130L1153,-70L1366,-49Z" fill="#84a3ca" stroke="#84a3ca"/><path d="M1002,-53L858,102L1002,133Z" fill="#90b8da" stroke="#90b8da"/><path d="M1002,-53L1002,133L1132,20Z" fill="#89abd0" stroke="#89abd0"/><path d="M1002,-53L1132,20L1153,-70Z" fill="#85a4cb" stroke="#85a4cb"/><path d="M1153,-70L1132,20L1297,-26Z" fill="#8096c1" stroke="#8096c1"/><path d="M1153,-70L1297,-26L1366,-49Z" fill="#808bb9" stroke="#808bb9"/><path d="M1297,-26L1132,20L1276,75Z" fill="#8090bc" stroke="#8090bc"/><path d="M1297,-26L1276,75L1387,30Z" fill="#8085b4" stroke="#8085b4"/><path d="M1297,-26L1387,30L1366,-49Z" fill="#8080b0" stroke="#8080b0"/><path d="M1366,-49L1387,30L1468,240Z" fill="#8080aa" stroke="#8080aa"/><path d="M-82,94L-133,533L-102,273Z" fill="#e2f9ff" stroke="#e2f9ff"/><path d="M-82,94L-102,273L78,246Z" fill="#f5ffff" stroke="#f5ffff"/><path d="M-82,94L78,246L123,59Z" fill="#f6fbfe" stroke="#f6fbfe"/><path d="M123,59L78,246L204,226Z" fill="#eaf6fc" stroke="#eaf6fc"/><path d="M123,59L204,226L280,53Z" fill="#ebf3fa" stroke="#ebf3fa"/><path d="M280,53L204,226L426,272Z" fill="#ddeef8" stroke="#ddeef8"/><path d="M280,53L426,272L332,25Z" fill="#deecf6" stroke="#deecf6"/><path d="M332,25L426,272L563,57Z" fill="#d2e7f2" stroke="#d2e7f2"/><path d="M563,57L426,272L508,272Z" fill="#c2e3ef" stroke="#c2e3ef"/><path d="M563,57L508,272L644,243Z" fill="#b8dced" stroke="#b8dced"/><path d="M563,57L644,243L669,64Z" fill="#b5d7eb" stroke="#b5d7eb"/><path d="M669,64L644,243L858,102Z" fill="#a6cfe6" stroke="#a6cfe6"/><path d="M858,102L644,243L841,258Z" fill="#99cae3" stroke="#99cae3"/><path d="M858,102L841,258L1002,133Z" fill="#90bddd" stroke="#90bddd"/><path d="M1002,133L841,258L1029,206Z" fill="#87b7d9" stroke="#87b7d9"/><path d="M1002,133L1029,206L1132,20Z" fill="#86aacf" stroke="#86aacf"/><path d="M1132,20L1029,206L1125,280Z" fill="#7fa4cb" stroke="#7fa4cb"/><path d="M1132,20L1125,280L1276,75Z" fill="#7e98c2" stroke="#7e98c2"/><path d="M1276,75L1125,280L1317,227Z" fill="#7890bc" stroke="#7890bc"/><path d="M1276,75L1317,227L1387,30Z" fill="#7f84b3" stroke="#7f84b3"/><path d="M1387,30L1317,227L1468,240Z" fill="#7a80ac" stroke="#7a80ac"/><path d="M-102,273L-133,533L-51,361Z" fill="#c9edff" stroke="#c9edff"/><path d="M-102,273L-51,361L26,360Z" fill="#d9f6ff" stroke="#d9f6ff"/><path d="M-102,273L26,360L78,246Z" fill="#dff8ff" stroke="#dff8ff"/><path d="M78,246L26,360L199,362Z" fill="#d0f0fd" stroke="#d0f0fd"/><path d="M78,246L199,362L204,226Z" fill="#d6f1fb" stroke="#d6f1fb"/><path d="M204,226L199,362L362,375Z" fill="#c4e9f9" stroke="#c4e9f9"/><path d="M204,226L362,375L426,272Z" fill="#c5e7f7" stroke="#c5e7f7"/><path d="M426,272L362,375L524,358Z" fill="#acddf2" stroke="#acddf2"/><path d="M426,272L524,358L508,272Z" fill="#afdef0" stroke="#afdef0"/><path d="M508,272L524,358L644,243Z" fill="#a6d8ed" stroke="#a6d8ed"/><path d="M644,243L524,358L707,423Z" fill="#8ecceb" stroke="#8ecceb"/><path d="M644,243L707,423L774,372Z" fill="#81c4e7" stroke="#81c4e7"/><path d="M644,243L774,372L841,258Z" fill="#8ac7e5" stroke="#8ac7e5"/><path d="M841,258L774,372L1001,381Z" fill="#71b6de" stroke="#71b6de"/><path d="M841,258L1001,381L1029,206Z" fill="#76b3d9" stroke="#76b3d9"/><path d="M1029,206L1001,381L1125,280Z" fill="#6da5d0" stroke="#6da5d0"/><path d="M1125,280L1001,381L1178,355Z" fill="#5c99ca" stroke="#5c99ca"/><path d="M1125,280L1178,355L1317,227Z" fill="#658fbf" stroke="#658fbf"/><path d="M1317,227L1178,355L1306,408Z" fill="#5a83b9" stroke="#5a83b9"/><path d="M1317,227L1306,408L1459,410Z" fill="#5574af" stroke="#5574af"/><path d="M1317,227L1459,410L1468,240Z" fill="#647aaa" stroke="#647aaa"/><path d="M-51,361L-133,533L91,491Z" fill="#b5e1fc" stroke="#b5e1fc"/><path d="M-51,361L91,491L26,360Z" fill="#bfe7ff" stroke="#bfe7ff"/><path d="M26,360L91,491L199,362Z" fill="#b8e3fd" stroke="#b8e3fd"/><path d="M199,362L91,491L241,511Z" fill="#a6d7f8" stroke="#a6d7f8"/><path d="M199,362L241,511L362,375Z" fill="#a8d9f8" stroke="#a8d9f8"/><path d="M362,375L241,511L408,500Z" fill="#97cef3" stroke="#97cef3"/><path d="M362,375L408,500L524,358Z" fill="#97d1f2" stroke="#97d1f2"/><path d="M524,358L408,500L560,565Z" fill="#7fc3eb" stroke="#7fc3eb"/><path d="M524,358L560,565L707,423Z" fill="#75bee9" stroke="#75bee9"/><path d="M707,423L560,565L690,557Z" fill="#5daee1" stroke="#5daee1"/><path d="M707,423L690,557L862,547Z" fill="#52a7dd" stroke="#52a7dd"/><path d="M707,423L862,547L774,372Z" fill="#5caee1" stroke="#5caee1"/><path d="M774,372L862,547L965,489Z" fill="#4ea1da" stroke="#4ea1da"/><path d="M774,372L965,489L1001,381Z" fill="#56a5dc" stroke="#56a5dc"/><path d="M1001,381L965,489L1136,567Z" fill="#3d8bcc" stroke="#3d8bcc"/><path d="M1001,381L1136,567L1178,355Z" fill="#4189c9" stroke="#4189c9"/><path d="M1178,355L1136,567L1247,486Z" fill="#3578bd" stroke="#3578bd"/><path d="M1178,355L1247,486L1306,408Z" fill="#4178bb" stroke="#4178bb"/><path d="M1306,408L1247,486L1406,546Z" fill="#3264af" stroke="#3264af"/><path d="M1306,408L1406,546L1459,410Z" fill="#3863a9" stroke="#3863a9"/><path d="M1459,410L1406,546L1417,775Z" fill="#1e4e9a" stroke="#1e4e9a"/><path d="M-133,533L-116,945L-116,814Z" fill="#91a2d3" stroke="#91a2d3"/><path d="M-133,533L-116,814L-27,733Z" fill="#92b4e0" stroke="#92b4e0"/><path d="M-133,533L-27,733L91,491Z" fill="#9acbf0" stroke="#9acbf0"/><path d="M91,491L-27,733L108,710Z" fill="#8bbbe8" stroke="#8bbbe8"/><path d="M91,491L108,710L184,714Z" fill="#85b9e8" stroke="#85b9e8"/><path d="M91,491L184,714L241,511Z" fill="#8dc4ed" stroke="#8dc4ed"/><path d="M241,511L184,714L317,617Z" fill="#7fb8e7" stroke="#7fb8e7"/><path d="M241,511L317,617L408,500Z" fill="#87c1ec" stroke="#87c1ec"/><path d="M408,500L317,617L560,565Z" fill="#76b9e6" stroke="#76b9e6"/><path d="M560,565L317,617L571,732Z" fill="#61a7db" stroke="#61a7db"/><path d="M560,565L571,732L677,668Z" fill="#4e98d4" stroke="#4e98d4"/><path d="M560,565L677,668L690,557Z" fill="#4ea0da" stroke="#4ea0da"/><path d="M690,557L677,668L847,663Z" fill="#3c92d2" stroke="#3c92d2"/><path d="M690,557L847,663L862,547Z" fill="#3c94d3" stroke="#3c94d3"/><path d="M862,547L847,663L1008,733Z" fill="#287dc6" stroke="#287dc6"/><path d="M862,547L1008,733L965,489Z" fill="#2d85cb" stroke="#2d85cb"/><path d="M965,489L1008,733L1136,567Z" fill="#2477c1" stroke="#2477c1"/><path d="M1136,567L1008,733L1166,698Z" fill="#185eb0" stroke="#185eb0"/><path d="M1136,567L1166,698L1252,686Z" fill="#1357ab" stroke="#1357ab"/><path d="M1136,567L1252,686L1247,486Z" fill="#1e62b0" stroke="#1e62b0"/><path d="M1247,486L1252,686L1394,624Z" fill="#1a52a6" stroke="#1a52a6"/><path d="M1247,486L1394,624L1406,546Z" fill="#2354a4" stroke="#2354a4"/><path d="M1406,546L1394,624L1417,775Z" fill="#134094" stroke="#134094"/><path d="M-27,733L-116,814L35,795Z" fill="#8f9ed0" stroke="#8f9ed0"/><path d="M-27,733L35,795L108,710Z" fill="#8aa3d5" stroke="#8aa3d5"/><path d="M108,710L35,795L181,873Z" fill="#8494cb" stroke="#8494cb"/><path d="M108,710L181,873L184,714Z" fill="#8098cf" stroke="#8098cf"/><path d="M184,714L181,873L412,829Z" fill="#7889c5" stroke="#7889c5"/><path d="M184,714L412,829L317,617Z" fill="#769cd4" stroke="#769cd4"/><path d="M317,617L412,829L571,732Z" fill="#6693cd" stroke="#6693cd"/><path d="M571,732L412,829L540,801Z" fill="#5a7fbe" stroke="#5a7fbe"/><path d="M571,732L540,801L693,788Z" fill="#4c7abe" stroke="#4c7abe"/><path d="M571,732L693,788L677,668Z" fill="#4581c4" stroke="#4581c4"/><path d="M677,668L693,788L790,770Z" fill="#3c78be" stroke="#3c78be"/><path d="M677,668L790,770L847,663Z" fill="#367dc3" stroke="#367dc3"/><path d="M847,663L790,770L964,816Z" fill="#2b67b5" stroke="#2b67b5"/><path d="M847,663L964,816L1008,733Z" fill="#2363b3" stroke="#2363b3"/><path d="M1008,733L964,816L1100,885Z" fill="#1b459d" stroke="#1b459d"/><path d="M1008,733L1100,885L1166,698Z" fill="#16459d" stroke="#16459d"/><path d="M1166,698L1100,885L1227,857Z" fill="#10318e" stroke="#10318e"/><path d="M1166,698L1227,857L1252,686Z" fill="#123b95" stroke="#123b95"/><path d="M1252,686L1227,857L1417,775Z" fill="#112988" stroke="#112988"/><path d="M1252,686L1417,775L1394,624Z" fill="#133490" stroke="#133490"/><path d="M-116,814L-116,945L35,795Z" fill="#8f8cc2" stroke="#8f8cc2"/><path d="M35,795L-116,945L75,945Z" fill="#8a7fba" stroke="#8a7fba"/><path d="M35,795L75,945L181,873Z" fill="#8380bc" stroke="#8380bc"/><path d="M181,873L75,945L230,993Z" fill="#7c76ae" stroke="#7c76ae"/><path d="M181,873L230,993L322,1011Z" fill="#7671a8" stroke="#7671a8"/><path d="M181,873L322,1011L412,829Z" fill="#736eb1" stroke="#736eb1"/><path d="M412,829L322,1011L533,953Z" fill="#6468a7" stroke="#6468a7"/><path d="M412,829L533,953L540,801Z" fill="#5b6db1" stroke="#5b6db1"/><path d="M540,801L533,953L712,919Z" fill="#4a5da8" stroke="#4a5da8"/><path d="M540,801L712,919L693,788Z" fill="#4366b0" stroke="#4366b0"/><path d="M693,788L712,919L790,770Z" fill="#3961ae" stroke="#3961ae"/><path d="M790,770L712,919L851,985Z" fill="#314c9f" stroke="#314c9f"/><path d="M790,770L851,985L964,816Z" fill="#294ca1" stroke="#294ca1"/><path d="M964,816L851,985L996,922Z" fill="#203a93" stroke="#203a93"/><path d="M964,816L996,922L1100,885Z" fill="#1a3691" stroke="#1a3691"/><path d="M1100,885L996,922L1109,998Z" fill="#152881" stroke="#152881"/><path d="M1100,885L1109,998L1227,857Z" fill="#0f1d7d" stroke="#0f1d7d"/><path d="M1227,857L1109,998L1273,937Z" fill="#0e1574" stroke="#0e1574"/><path d="M1227,857L1273,937L1417,775Z" fill="#101377" stroke="#101377"/><path d="M1417,775L1273,937L1386,993Z" fill="#0f0069" stroke="#0f0069"/><path d="M-116,945L322,1011L230,993Z" fill="#7d76a6" stroke="#7d76a6"/><path d="M-116,945L230,993L75,945Z" fill="#847bac" stroke="#847bac"/><path d="M322,1011L1109,998L851,985Z" fill="#324c8c" stroke="#324c8c"/><path d="M322,1011L851,985L533,953Z" fill="#4d5d97" stroke="#4d5d97"/><path d="M533,953L851,985L712,919Z" fill="#3b5197" stroke="#3b5197"/><path d="M851,985L1109,998L996,922Z" fill="#1b3483" stroke="#1b3483"/><path d="M1109,998L1386,993L1273,937Z" fill="#0d0e66" stroke="#0d0e66"/></g></svg>